<?xml version="1.0" standalone="no"?>
<!DOCTYPE svg PUBLIC "-//W3C//DTD SVG 20010904//EN"
 "http://www.w3.org/TR/2001/REC-SVG-20010904/DTD/svg10.dtd">
<svg version="1.0" xmlns="http://www.w3.org/2000/svg"
 width="1800.000000pt" height="1800.000000pt" viewBox="0 0 1800.000000 1800.000000"
 preserveAspectRatio="xMidYMid meet">

<g transform="translate(0.000000,1800.000000) scale(0.100000,-0.100000)"
fill="#90aa66" stroke="none">
<path d="M0 17982 c0 -33 293 -382 468 -558 232 -233 395 -351 732 -532 36
-19 103 -56 150 -82 198 -109 597 -298 830 -391 59 -24 98 -47 127 -76 69 -68
132 -214 198 -458 104 -379 200 -654 287 -815 131 -245 338 -438 638 -599 94
-49 296 -131 326 -131 10 0 -3 22 -36 62 -86 108 -160 268 -180 393 -6 36 -17
168 -25 293 -17 254 -24 306 -62 442 -52 192 -138 313 -343 482 -155 129 -530
338 -720 402 -324 110 -869 371 -1358 652 -110 63 -134 83 -168 137 -68 105
-70 281 -9 596 21 105 36 194 33 196 -3 3 -161 4 -351 3 l-346 -3 34 -80 c19
-44 65 -129 101 -188 36 -60 64 -111 62 -113 -5 -4 -177 194 -272 314 -48 59
-63 72 -87 72 -21 0 -29 -5 -29 -18z"/>
<path d="M8651 17919 c79 -87 238 -225 303 -263 23 -12 70 -41 106 -63 36 -22
131 -74 211 -115 254 -131 410 -248 645 -482 140 -141 368 -396 360 -403 -2
-2 -55 29 -117 68 -254 161 -607 296 -1216 464 -73 21 -215 66 -315 101 -664
235 -1103 298 -1333 195 -129 -58 -260 -155 -465 -341 -220 -200 -355 -272
-575 -308 l-110 -18 90 -43 c142 -68 363 -140 495 -161 200 -32 453 -20 605
27 213 67 375 144 665 317 332 199 428 237 600 239 77 1 122 -11 625 -159 598
-177 955 -361 1254 -648 40 -39 121 -132 179 -206 519 -659 756 -901 1072
-1096 52 -31 106 -67 119 -78 33 -29 77 -121 102 -213 28 -100 29 -267 4 -548
-21 -235 -16 -542 10 -695 44 -258 182 -519 392 -740 93 -99 282 -265 290
-256 3 2 -10 48 -27 103 -58 180 -59 343 -5 548 124 470 118 434 119 620 1
169 0 170 -32 255 -81 209 -216 408 -438 648 -53 56 -93 102 -90 102 3 0 95
-45 203 -99 109 -54 250 -122 313 -151 110 -50 437 -212 755 -374 519 -265
852 -386 1059 -386 149 1 335 74 621 245 159 96 243 137 345 170 78 26 98 28
247 29 90 1 163 3 163 6 0 11 -156 118 -256 177 -265 154 -514 226 -779 225
-205 -1 -398 -42 -785 -167 -280 -90 -369 -108 -540 -109 -175 -1 -248 17
-507 120 -497 198 -1230 583 -1355 711 -26 26 -60 75 -75 108 -26 55 -28 69
-27 175 0 94 6 137 31 235 17 66 49 190 71 275 22 85 48 202 58 260 24 139 24
364 1 480 -58 291 -217 573 -464 822 -53 54 -98 96 -100 94 -2 -2 5 -52 16
-110 40 -207 23 -342 -77 -606 -129 -343 -162 -472 -162 -633 0 -161 68 -353
207 -581 30 -49 52 -90 50 -92 -10 -10 -212 236 -671 816 -203 256 -397 481
-540 624 -235 237 -406 365 -672 504 -308 161 -553 339 -591 429 -13 32 -15
33 -74 33 l-61 0 73 -81z"/>
<path d="M16940 17951 c0 -24 7 -68 16 -99 23 -78 14 -198 -22 -289 -32 -83
-62 -136 -179 -323 -195 -312 -289 -523 -315 -715 -15 -104 -8 -294 14 -395
23 -105 84 -276 134 -374 52 -103 45 -107 76 49 18 89 68 203 122 277 20 27
95 113 166 191 205 224 272 324 317 471 55 179 2 538 -126 851 -25 61 -49 120
-53 131 -5 12 55 -42 133 -120 147 -148 206 -193 388 -302 174 -104 232 -188
331 -479 l58 -170 0 292 0 293 -27 6 c-209 49 -287 80 -419 165 -144 94 -237
181 -581 548 l-33 34 0 -42z"/>
<path d="M3312 17720 c160 -186 220 -331 253 -605 61 -508 132 -693 328 -851
174 -141 315 -210 947 -459 107 -43 222 -91 255 -107 260 -130 443 -346 453
-535 8 -144 -63 -306 -227 -517 -153 -197 -203 -264 -281 -383 -96 -145 -185
-318 -224 -434 -84 -249 -82 -627 5 -923 25 -86 62 -186 69 -186 3 0 13 36 23
80 20 88 68 202 120 283 49 75 124 155 272 285 160 141 248 233 324 337 73
100 94 141 128 252 27 86 27 94 27 338 0 231 -2 261 -27 396 -15 80 -41 199
-57 264 -16 65 -28 120 -27 121 2 2 40 -52 85 -119 113 -169 239 -316 357
-417 55 -47 125 -110 156 -141 100 -99 162 -260 209 -539 46 -278 64 -354 136
-584 124 -396 387 -684 820 -897 170 -84 188 -87 140 -23 -52 68 -123 219
-147 315 -18 73 -22 128 -29 429 -8 356 -14 407 -58 533 -51 142 -216 295
-638 587 -574 396 -843 650 -989 930 -43 81 -147 238 -197 295 -133 155 -253
241 -514 371 -243 121 -291 158 -347 270 -42 85 -66 157 -112 349 -136 554
-306 834 -643 1064 -140 95 -374 201 -554 251 -40 11 -74 20 -76 20 -2 0 16
-23 40 -50z"/>
<path d="M0 16830 l0 -380 60 -116 c71 -138 134 -226 227 -315 133 -129 292
-226 488 -299 106 -40 276 -93 281 -88 1 2 -22 30 -52 63 -66 72 -124 167
-158 255 -25 68 -33 115 -66 375 -34 268 -95 420 -217 542 -107 106 -353 260
-520 326 l-43 17 0 -380z"/>
<path d="M13860 17029 c0 -8 9 -52 19 -99 75 -334 248 -648 469 -851 130 -119
360 -253 732 -424 449 -208 584 -295 649 -423 43 -85 136 -442 166 -642 37
-246 46 -524 24 -835 -24 -356 -9 -609 51 -836 30 -118 106 -312 160 -411 64
-117 82 -176 87 -285 8 -145 -18 -248 -119 -483 -142 -327 -192 -466 -239
-653 -54 -216 -51 -459 7 -682 47 -181 167 -442 266 -575 l33 -45 6 140 c10
235 48 329 261 637 116 168 182 290 225 418 35 103 35 108 30 220 -14 275
-158 676 -454 1260 -135 267 -186 401 -225 588 -15 74 -17 101 -8 127 38 116
248 277 565 433 391 193 727 407 928 590 171 157 245 266 285 421 23 91 25
117 32 486 l6 390 28 85 c33 99 73 182 122 252 20 27 34 52 32 53 -7 7 -153
-61 -245 -114 -254 -145 -451 -327 -581 -536 -117 -190 -212 -512 -272 -922
-26 -181 -59 -311 -103 -404 -64 -136 -74 -146 -273 -245 -211 -104 -360 -201
-466 -302 l-77 -74 -7 39 c-4 21 1 206 11 412 31 648 2 897 -175 1491 -27 91
-63 217 -80 280 -80 299 -252 653 -412 846 -79 96 -158 156 -281 213 -119 56
-227 86 -502 137 -110 20 -234 49 -276 63 -116 41 -223 107 -316 195 -46 43
-83 72 -83 65z"/>
<path d="M9360 16162 c0 -40 -36 -164 -69 -235 -68 -151 -181 -286 -349 -420
-160 -128 -328 -344 -384 -492 -21 -56 -22 -75 -22 -300 1 -219 4 -256 32
-425 29 -174 115 -570 149 -689 13 -45 14 -93 10 -275 -8 -363 -75 -778 -179
-1106 -58 -185 -109 -297 -350 -775 -103 -203 -155 -327 -193 -458 -57 -197
-80 -442 -63 -672 17 -237 0 -431 -63 -710 -42 -184 -176 -606 -198 -619 -3
-2 -6 91 -6 207 0 293 -19 428 -122 867 -30 129 -61 262 -68 295 -8 33 -19 73
-25 89 -5 15 -28 126 -50 245 -85 467 -206 858 -330 1072 -110 187 -262 283
-660 414 -118 39 -246 88 -301 117 -114 59 -235 160 -303 252 -26 36 -51 66
-54 66 -11 0 9 -193 33 -314 80 -394 232 -661 499 -880 153 -125 280 -207 562
-362 199 -109 261 -151 347 -233 103 -99 138 -166 182 -351 20 -85 54 -226 76
-313 53 -216 74 -312 112 -522 31 -174 32 -189 31 -445 -1 -263 -1 -266 -36
-430 -25 -119 -50 -204 -90 -305 -182 -455 -234 -598 -293 -790 -121 -398
-130 -463 -130 -955 1 -228 6 -475 13 -565 21 -269 41 -464 62 -600 38 -256
60 -445 90 -790 57 -648 91 -977 115 -1124 83 -490 195 -844 402 -1271 217
-449 354 -847 468 -1365 40 -184 83 -359 116 -474 17 -57 28 -105 26 -107 -2
-2 -34 43 -70 100 -143 222 -313 432 -483 596 -291 280 -649 545 -916 677
-198 98 -265 140 -351 222 -114 109 -197 246 -270 446 -152 418 -337 688 -592
864 -201 139 -504 253 -760 287 l-50 6 86 -88 c47 -49 97 -105 110 -124 80
-111 137 -262 189 -499 57 -254 130 -442 217 -556 84 -110 324 -251 588 -348
121 -45 454 -153 575 -187 170 -49 312 -117 490 -236 328 -218 683 -533 884
-784 99 -123 221 -298 214 -306 -3 -2 -54 33 -114 79 -114 86 -137 103 -324
227 -564 376 -1147 603 -1810 706 -513 79 -908 82 -1238 8 -375 -84 -502 -194
-791 -684 -150 -254 -240 -347 -431 -447 -55 -28 -96 -54 -91 -57 15 -10 262
-36 336 -36 135 0 367 35 505 77 103 30 262 108 350 171 167 119 295 243 526
507 186 213 281 300 390 357 122 64 181 73 333 54 136 -18 423 -74 567 -111
113 -29 433 -137 544 -184 389 -165 793 -408 1200 -725 169 -131 180 -142 235
-225 28 -42 70 -104 94 -138 l44 -63 82 0 82 0 12 67 c6 38 28 116 47 175 38
115 162 376 194 408 52 52 250 499 329 743 93 287 118 522 71 672 -26 83 -104
234 -168 325 -63 90 -192 258 -221 289 -56 58 -140 226 -172 341 -6 25 -15 97
-18 160 l-6 115 -39 -60 c-51 -78 -136 -259 -169 -360 -127 -388 -124 -657 13
-1040 40 -111 92 -227 209 -465 123 -250 153 -338 159 -475 l4 -101 -58 -109
c-133 -253 -188 -380 -224 -526 -31 -122 -28 -117 -56 -84 -54 66 -139 234
-184 364 -49 142 -56 170 -169 651 -122 517 -226 825 -403 1190 -99 204 -186
406 -240 553 -56 154 -62 175 -119 397 -56 214 -57 236 -15 319 57 111 161
205 353 319 149 88 383 243 564 373 76 55 155 106 176 113 149 52 485 68 710
33 299 -47 598 -148 923 -312 368 -187 490 -302 790 -750 181 -269 375 -486
537 -600 145 -102 210 -243 273 -595 113 -623 215 -877 455 -1129 104 -110
266 -231 425 -319 72 -39 240 -115 245 -110 3 2 -14 31 -36 63 -57 85 -93 158
-124 255 -28 84 -28 89 -35 425 -6 317 -9 348 -34 462 -14 67 -38 147 -51 178
-71 160 -269 355 -550 542 -110 73 -315 190 -422 240 -147 69 -225 131 -362
287 -126 145 -174 207 -314 411 -64 94 -145 206 -181 251 -116 145 -281 285
-436 371 -556 308 -1086 450 -1543 412 -76 -6 -140 -9 -142 -7 -2 2 57 51 131
108 74 58 156 122 182 143 82 67 221 208 298 303 133 163 312 294 596 436 487
242 1133 418 2138 582 184 30 369 59 410 65 832 119 1188 182 1425 253 73 22
327 124 500 201 298 132 849 426 1050 560 249 166 534 465 960 1007 72 90 166
199 210 241 316 304 667 482 1313 667 87 25 92 28 92 54 0 16 -5 28 -10 28 -6
0 -56 -13 -112 -30 -55 -16 -111 -30 -123 -30 -24 0 -286 -87 -422 -140 -116
-45 -333 -156 -437 -224 -49 -31 -90 -55 -93 -53 -7 8 160 200 277 318 290
292 457 418 740 562 85 44 161 84 168 89 6 6 12 28 12 49 l0 38 -52 -30 c-29
-17 -110 -60 -180 -95 -215 -108 -384 -231 -624 -454 -201 -187 -352 -364
-834 -976 -188 -238 -410 -504 -422 -504 -6 0 -2 12 8 28 168 254 266 525 250
691 -17 165 -62 327 -161 576 -111 278 -127 438 -69 663 8 30 13 56 11 58 -8
8 -125 -106 -199 -194 -148 -177 -277 -393 -328 -554 -99 -306 -80 -587 75
-1093 99 -323 83 -488 -58 -612 -103 -91 -838 -481 -1167 -620 -205 -87 -214
-91 -320 -129 -212 -76 -531 -141 -1090 -219 -140 -20 -293 -42 -340 -50 -47
-8 -191 -30 -320 -50 -229 -34 -310 -48 -690 -120 -436 -82 -894 -203 -1220
-322 -245 -89 -485 -205 -648 -311 -46 -30 -85 -52 -88 -50 -2 3 20 43 49 89
70 111 194 327 292 509 128 236 152 275 237 383 278 352 597 577 1221 861 225
103 301 121 497 120 178 0 324 -25 565 -95 405 -118 697 -179 855 -179 291 0
664 133 945 337 l59 43 -113 0 c-192 0 -353 49 -541 165 -365 224 -407 246
-572 295 -119 36 -162 37 -299 9 -265 -54 -588 -188 -969 -402 -69 -38 -201
-108 -295 -154 -596 -295 -713 -359 -905 -491 -102 -70 -234 -178 -289 -236
-73 -76 -59 -40 58 149 260 423 457 651 751 868 159 118 367 321 458 448 86
121 178 294 268 504 135 318 194 448 236 520 129 222 171 287 248 390 126 168
286 352 450 516 223 224 283 268 554 402 243 121 493 261 623 348 181 122 337
262 396 356 66 105 110 305 132 598 17 236 34 353 64 438 28 80 93 195 148
262 25 31 43 59 40 62 -8 7 -66 -12 -202 -70 -386 -163 -660 -409 -809 -728
-88 -189 -135 -330 -226 -684 -48 -190 -94 -314 -145 -396 -42 -66 -143 -160
-213 -199 -237 -129 -718 -630 -958 -995 -150 -230 -238 -402 -389 -765 -24
-58 -69 -159 -100 -224 -61 -130 -62 -130 -91 -41 -42 126 -157 321 -279 475
-41 52 -92 119 -113 149 l-37 54 1 146 c0 163 6 191 94 476 130 422 172 744
126 980 -40 207 -127 414 -256 610 -71 108 -178 240 -187 231 -3 -2 1 -48 7
-101 15 -122 1 -243 -42 -370 -17 -49 -83 -193 -147 -320 -154 -304 -186 -405
-185 -585 0 -119 3 -131 41 -245 101 -301 316 -658 632 -1050 160 -199 278
-415 301 -552 12 -70 2 -99 -67 -190 -93 -124 -236 -260 -408 -388 -408 -304
-637 -613 -1130 -1520 -228 -419 -371 -669 -416 -725 -18 -23 -18 -21 3 30 90
224 139 420 140 560 0 115 -39 264 -107 405 -44 91 -60 119 -171 307 -138 232
-164 314 -173 542 l-6 159 -60 -83 c-59 -82 -145 -221 -203 -330 -43 -79 -109
-279 -127 -385 -19 -108 -21 -308 -5 -425 21 -155 106 -458 161 -577 39 -83
93 -237 126 -353 21 -75 26 -118 26 -205 1 -149 -9 -179 -80 -238 -62 -50
-266 -213 -392 -311 -217 -170 -609 -443 -764 -532 -211 -121 -354 -236 -422
-337 -30 -44 -33 -46 -38 -25 -12 47 -67 519 -82 703 -8 105 -24 300 -35 435
-21 260 -48 504 -80 710 -25 157 -67 581 -80 805 -5 94 -10 306 -10 473 l0
304 88 86 c74 74 103 95 193 139 58 29 170 76 250 104 405 142 615 242 790
375 187 143 370 399 464 650 20 54 43 106 51 114 11 13 64 205 64 233 0 4 -37
-23 -82 -61 -136 -113 -208 -156 -330 -198 -68 -23 -268 -63 -423 -84 -159
-22 -352 -83 -465 -147 -56 -32 -137 -107 -210 -193 -61 -72 -182 -259 -213
-330 -11 -25 -22 -40 -24 -33 -7 21 109 338 275 753 111 276 212 536 212 545
0 4 7 21 15 38 22 50 60 160 100 297 20 69 42 145 50 170 24 81 64 293 76 405
8 75 10 196 5 380 -7 301 1 418 41 588 29 125 48 154 129 192 123 58 254 76
699 95 531 23 804 64 1068 161 271 100 433 276 582 629 108 256 131 305 183
386 60 93 177 210 270 269 34 21 62 43 62 49 0 11 -242 1 -358 -15 -42 -6
-122 -21 -177 -35 -295 -73 -503 -189 -688 -383 -110 -116 -187 -224 -282
-396 -168 -303 -201 -351 -298 -433 -34 -29 -103 -74 -154 -99 l-92 -46 -199
-8 c-297 -12 -485 -45 -655 -114 -16 -7 -16 -3 3 46 12 30 86 181 166 337 254
499 324 684 398 1054 52 263 61 321 81 532 19 206 19 402 -1 535 -19 124 -14
199 20 297 25 74 116 244 146 272 41 39 250 332 324 455 79 132 174 331 200
419 76 264 74 535 -5 848 -32 124 -86 270 -100 270 -5 0 -9 -12 -9 -28z"/>
<path d="M4018 13680 c-410 -76 -763 -268 -961 -523 -123 -157 -183 -270 -268
-501 -126 -343 -153 -392 -283 -521 -93 -93 -220 -179 -363 -248 -287 -138
-718 -459 -1006 -750 -176 -177 -286 -323 -542 -719 -146 -227 -215 -323 -230
-320 -6 1 -13 26 -17 56 -9 73 -32 149 -80 273 -39 100 -59 142 -173 358 l-58
110 7 83 c9 121 54 249 173 492 262 537 326 771 300 1100 -17 227 -129 555
-253 745 l-39 60 -7 -113 c-10 -172 -56 -305 -162 -464 l-56 -84 0 -963 0
-963 26 -31 c36 -43 176 -333 208 -432 38 -118 58 -231 50 -289 -5 -42 -15
-59 -58 -104 -28 -30 -90 -86 -138 -124 -84 -67 -88 -72 -88 -110 l0 -39 76
53 c99 68 292 259 373 368 35 47 107 152 160 233 299 460 341 520 476 670 152
171 370 364 624 555 277 207 439 290 766 392 614 192 848 297 1006 450 65 64
84 90 127 180 59 121 105 255 132 387 77 367 153 524 337 693 36 33 60 60 52
59 -8 0 -58 -9 -111 -19z"/>
<path d="M17962 12573 c-105 -136 -203 -313 -244 -443 -20 -64 -23 -95 -23
-215 1 -150 13 -224 67 -420 48 -178 139 -411 208 -537 l30 -53 0 853 c0 468
-2 852 -4 852 -2 0 -17 -17 -34 -37z"/>
<path d="M4706 12068 c-24 -211 -96 -371 -243 -540 -32 -36 -97 -111 -144
-165 -127 -146 -182 -223 -243 -342 -85 -166 -102 -302 -70 -569 28 -248 157
-669 253 -834 62 -104 86 -321 78 -693 -8 -396 -32 -595 -103 -879 -36 -145
-121 -392 -174 -510 -17 -39 -60 -144 -96 -235 -36 -91 -69 -176 -74 -188 -17
-42 -79 -288 -92 -368 -22 -139 -15 -422 15 -633 42 -284 34 -476 -34 -842
-28 -151 -85 -392 -108 -451 -9 -26 -15 15 -26 201 -13 228 -81 500 -245 990
-65 195 -123 373 -128 395 -23 95 -114 392 -165 535 -122 342 -233 551 -362
681 -112 113 -323 200 -650 270 -190 41 -334 96 -444 172 -25 17 -83 69 -129
115 l-84 84 7 -64 c19 -160 90 -388 177 -563 133 -268 339 -472 653 -646 73
-40 185 -94 474 -224 200 -91 295 -157 385 -266 45 -55 55 -79 144 -336 245
-715 305 -980 306 -1343 0 -227 -22 -389 -79 -580 -23 -80 -57 -197 -74 -260
-55 -204 -59 -214 -108 -275 -99 -122 -229 -204 -488 -305 -426 -168 -654
-299 -836 -480 -169 -168 -279 -354 -367 -615 -34 -102 -86 -314 -79 -322 1
-1 39 33 84 75 103 98 229 174 353 212 52 17 192 50 310 74 245 51 321 75 450
142 185 95 306 243 460 559 102 212 194 491 219 671 10 65 28 129 166 589 114
379 143 482 214 770 22 90 66 330 77 418 3 32 10 55 13 50 4 -4 20 -46 35 -93
83 -253 186 -476 301 -650 171 -259 331 -362 680 -440 72 -15 179 -36 240 -45
262 -40 422 -116 598 -284 26 -25 47 -40 47 -34 0 21 -52 209 -82 298 -41 122
-135 307 -211 418 -82 121 -228 266 -347 345 -98 65 -364 201 -480 244 -93 35
-305 117 -374 144 -154 60 -319 191 -371 293 -22 44 -27 71 -35 199 -5 81 -17
193 -26 247 -12 69 -18 159 -18 290 -1 205 14 333 44 383 24 39 135 104 236
138 92 31 337 80 444 89 247 22 692 112 914 187 120 40 250 97 342 149 195
111 298 280 434 709 58 185 116 311 184 398 48 64 163 173 208 200 16 9 28 20
28 24 0 22 -363 -36 -495 -79 -466 -152 -701 -373 -1020 -958 -171 -314 -242
-415 -342 -487 -76 -54 -79 -55 -236 -73 -269 -29 -480 -80 -617 -150 -28 -14
-53 -25 -55 -23 -6 6 80 247 128 358 205 482 270 704 323 1105 26 196 28 233
28 565 l0 355 -29 115 c-36 144 -41 217 -21 318 16 86 95 266 165 377 177 280
310 546 370 739 69 224 67 540 -4 803 -39 142 -133 374 -164 406 -5 5 -11 -20
-15 -55z"/>
<path d="M1175 9503 c-266 -34 -721 -174 -855 -263 -14 -10 -86 -34 -160 -55
-74 -20 -141 -39 -147 -41 -14 -4 -18 -74 -5 -74 5 0 76 21 158 47 127 40 161
47 229 46 95 -1 180 -22 294 -74 46 -22 89 -39 95 -39 6 0 74 -39 151 -86 313
-192 556 -307 761 -360 101 -27 123 -29 304 -29 167 0 211 3 305 24 175 37
356 100 490 169 l50 26 -65 9 c-183 24 -339 87 -475 189 -39 29 -78 58 -87 63
-8 6 -65 55 -126 109 -156 139 -252 209 -367 266 -130 65 -203 80 -380 78 -77
0 -153 -3 -170 -5z"/>
<path d="M17093 8076 c15 -38 37 -191 37 -250 -1 -107 -26 -209 -90 -368 -123
-301 -148 -407 -137 -569 16 -218 186 -501 520 -868 73 -80 148 -168 166 -194
73 -107 158 -323 186 -473 48 -253 60 -307 90 -394 33 -96 90 -218 119 -255
16 -19 16 -16 13 45 -3 47 -14 89 -40 150 -48 111 -51 200 -11 276 14 27 32
56 40 65 11 13 14 74 13 340 l0 324 -25 -70 c-39 -110 -83 -318 -96 -453 -6
-67 -15 -119 -20 -114 -4 4 -19 52 -33 106 -62 244 -117 379 -224 549 -23 35
-49 89 -58 118 -23 72 -23 244 1 374 9 55 28 159 41 230 35 192 49 394 35 525
-26 264 -146 514 -367 764 -79 90 -171 171 -160 142z"/>
<path d="M1143 6809 c-18 -25 -67 -78 -109 -118 -97 -91 -194 -139 -441 -220
-320 -105 -467 -197 -565 -350 l-28 -45 0 -368 0 -368 61 45 c33 24 133 85
222 134 208 115 254 143 373 227 167 118 310 275 382 419 90 181 147 428 140
610 l-3 80 -32 -46z"/>
<path d="M12140 5637 c0 -2 40 -44 88 -93 166 -168 216 -273 301 -639 45 -195
75 -283 138 -411 53 -108 104 -165 207 -229 79 -49 286 -143 429 -194 939
-339 1470 -668 1909 -1183 147 -172 195 -240 469 -663 245 -378 452 -567 844
-770 72 -37 150 -79 175 -93 144 -83 357 -259 526 -434 134 -139 326 -359 319
-366 -3 -3 -37 16 -76 42 -107 72 -258 152 -398 211 -163 69 -585 206 -956
310 -44 13 -118 37 -165 55 -84 32 -116 43 -300 101 -376 120 -736 178 -928
151 -145 -21 -331 -134 -567 -347 -200 -180 -273 -232 -394 -284 -67 -29 -244
-71 -295 -71 -27 0 -35 -14 -13 -23 6 -3 66 -29 132 -57 300 -130 635 -181
894 -136 234 42 464 142 830 364 261 157 375 206 514 222 88 10 111 8 217 -25
41 -13 127 -38 190 -55 63 -18 140 -40 170 -50 30 -9 114 -35 185 -55 181 -53
429 -146 565 -211 312 -149 572 -351 757 -587 l88 -111 3 53 c3 50 1 55 -50
119 -30 37 -110 137 -178 222 -259 324 -386 470 -564 644 -222 216 -397 345
-642 468 -170 87 -305 172 -414 263 -120 100 -157 145 -166 200 -15 104 53
328 170 555 184 360 238 470 299 622 111 271 170 477 188 655 28 271 -34 416
-361 843 -86 114 -129 186 -173 294 -29 72 -57 224 -57 314 0 31 -4 51 -10 47
-5 -3 -29 -40 -52 -83 -159 -285 -238 -560 -238 -832 0 -159 18 -266 75 -442
53 -165 73 -212 225 -528 128 -264 140 -296 164 -412 29 -139 16 -203 -66
-339 -97 -160 -209 -449 -224 -577 -4 -39 -11 -61 -18 -59 -18 6 -116 146
-250 358 -232 363 -341 505 -545 709 -248 248 -579 499 -899 681 -327 186
-417 247 -531 362 -114 115 -158 204 -220 443 -93 358 -250 581 -550 784 -160
108 -485 229 -686 255 -27 4 -58 9 -67 12 -10 2 -18 2 -18 0z"/>
<path d="M0 4623 c0 -47 1 -49 109 -163 185 -194 186 -198 176 -665 -6 -305
-5 -341 14 -475 12 -80 33 -181 47 -225 55 -170 166 -346 313 -498 107 -111
294 -267 306 -255 2 2 -7 31 -20 65 -34 83 -55 190 -55 277 0 77 29 257 55
341 51 162 77 387 56 486 -43 207 -294 506 -799 952 -67 59 -140 131 -162 158
l-40 51 0 -49z"/>
<path d="M344 1573 c25 -83 36 -163 36 -278 0 -183 -13 -234 -140 -565 -98
-254 -133 -444 -107 -591 8 -46 20 -96 26 -112 l11 -27 367 2 368 3 7 50 c4
28 10 149 14 270 6 186 4 237 -10 325 -48 286 -208 577 -460 838 -88 91 -122
117 -112 85z"/>
</g>
</svg>
